<svg width="65" height="85" viewBox="0 0 65 85" fill="none" xmlns="http://www.w3.org/2000/svg">
<g id="star">
<path id="Vector" d="M40.3161 11.4761C33.9085 9.62362 32.8076 8.27348 31.2948 0.353232C31.2552 0.149142 31.0809 0 30.875 0C30.6691 0 30.4948 0.149142 30.4552 0.353232C28.9424 8.27348 27.8415 9.62362 21.4339 11.4761C21.2517 11.5311 21.125 11.7038 21.125 11.9C21.125 12.0962 21.2517 12.2689 21.4339 12.3239C27.8415 14.1764 28.9345 15.5265 30.4552 23.4468C30.4948 23.6509 30.6691 23.8 30.875 23.8C31.0809 23.8 31.2552 23.6509 31.2948 23.4468C32.8076 15.5265 33.9085 14.1764 40.3161 12.3239C40.4983 12.2689 40.625 12.0962 40.625 11.9C40.625 11.7038 40.4983 11.5311 40.3161 11.4761Z" fill="#F72BB7"/>
<path id="Vector_2" d="M15.9926 37.3594C10.6529 35.8144 9.73548 34.6884 8.47482 28.083C8.44182 27.9128 8.29661 27.7885 8.125 27.7885C7.95339 27.7885 7.80818 27.9128 7.77518 28.083C6.51452 34.6884 5.59708 35.8144 0.257413 37.3594C0.105605 37.4052 0 37.5492 0 37.7129C0 37.8766 0.105605 38.0206 0.257413 38.0664C5.59708 39.6114 6.50792 40.7374 7.77518 47.3428C7.80818 47.513 7.95339 47.6374 8.125 47.6374C8.29661 47.6374 8.44182 47.513 8.47482 47.3428C9.73548 40.7374 10.6529 39.6114 15.9926 38.0664C16.1444 38.0206 16.25 37.8766 16.25 37.7129C16.25 37.5492 16.1444 37.4052 15.9926 37.3594Z" fill="#F72BB7"/>
<path id="Vector_3" d="M59.5072 55.6626C46.692 51.9547 44.4902 49.2523 41.4646 33.3993C41.3854 32.9908 41.0369 32.6923 40.625 32.6923C40.2131 32.6923 39.8646 32.9908 39.7854 33.3993C36.7599 49.2523 34.558 51.9547 21.7428 55.6626C21.3785 55.7726 21.125 56.1182 21.125 56.511C21.125 56.9038 21.3785 57.2494 21.7428 57.3594C34.558 61.0673 36.744 63.7697 39.7854 79.6227C39.8646 80.0312 40.2131 80.3297 40.625 80.3297C41.0369 80.3297 41.3854 80.0312 41.4646 79.6227C44.4902 63.7697 46.692 61.0673 59.5072 57.3594C59.8715 57.2494 60.125 56.9038 60.125 56.511C60.125 56.1182 59.8715 55.7726 59.5072 55.6626Z" fill="#F72BB7"/>
</g>
</svg>
