<svg width="20" height="20" viewBox="0 0 20 20" fill="none" xmlns="http://www.w3.org/2000/svg">
<g id="sr-star-fill" clip-path="url(#clip0_366_10989)">
<path id="line" fill-rule="evenodd" clip-rule="evenodd" d="M9.96803 0.833374C10.3291 0.833374 10.649 1.06584 10.7606 1.40919L12.6315 7.16739H18.686C19.0471 7.16739 19.367 7.39985 19.4786 7.7432C19.5902 8.08656 19.4679 8.4627 19.1759 8.6749L14.2777 12.2337L16.1486 17.9918C16.2602 18.3352 16.138 18.7113 15.8459 18.9235C15.5538 19.1357 15.1583 19.1357 14.8662 18.9235L9.96803 15.3648L5.06982 18.9235C4.77775 19.1357 4.38225 19.1357 4.09018 18.9235C3.79811 18.7113 3.67589 18.3352 3.78746 17.9918L5.6584 12.2337L0.760195 8.6749C0.468122 8.4627 0.345907 8.08656 0.457469 7.7432C0.569031 7.39985 0.888994 7.16739 1.25002 7.16739H7.30454L9.17549 1.40919C9.28705 1.06584 9.60701 0.833374 9.96803 0.833374Z" fill="#FBD948"/>
</g>
<defs>
<clipPath id="clip0_366_10989">
<rect width="20" height="20" fill="white"/>
</clipPath>
</defs>
</svg>
