<svg width="20" height="20" viewBox="0 0 20 20" fill="none" xmlns="http://www.w3.org/2000/svg">
<g id="sr-star" clip-path="url(#clip0_366_10990)">
<path id="line" fill-rule="evenodd" clip-rule="evenodd" d="M9.96803 0.833374C10.3291 0.833374 10.649 1.06584 10.7606 1.40919L12.6315 7.16739H18.686C19.0471 7.16739 19.367 7.39985 19.4786 7.7432C19.5902 8.08656 19.4679 8.4627 19.1759 8.6749L14.2777 12.2337L16.1486 17.9918C16.2602 18.3352 16.138 18.7113 15.8459 18.9235C15.5538 19.1357 15.1583 19.1357 14.8662 18.9235L9.96803 15.3648L5.06982 18.9235C4.77775 19.1357 4.38225 19.1357 4.09018 18.9235C3.79811 18.7113 3.67589 18.3352 3.78746 17.9918L5.6584 12.2337L0.760195 8.6749C0.468122 8.4627 0.345907 8.08656 0.457469 7.7432C0.569031 7.39985 0.888994 7.16739 1.25002 7.16739H7.30454L9.17549 1.40919C9.28705 1.06584 9.60701 0.833374 9.96803 0.833374ZM9.96803 4.36343L8.70254 8.25823C8.59097 8.60158 8.27101 8.83405 7.90999 8.83405H3.81475L7.12787 11.2412C7.41994 11.4534 7.54216 11.8295 7.43059 12.1729L6.1651 16.0677L9.47821 13.6605C9.77028 13.4483 10.1658 13.4483 10.4579 13.6605L13.771 16.0677L12.5055 12.1729C12.3939 11.8295 12.5161 11.4534 12.8082 11.2412L16.1213 8.83405H12.0261C11.6651 8.83405 11.3451 8.60158 11.2335 8.25823L9.96803 4.36343Z" fill="#FBD948"/>
</g>
<defs>
<clipPath id="clip0_366_10990">
<rect width="20" height="20" fill="white"/>
</clipPath>
</defs>
</svg>
